# xmcd CD database file
#
# Track frame offsets:
#	183
#	12893
#	25688
#	40673
#	53598
#	65573
#	77783
#	90468
#	105665
#	119830
#	134093
#	148175
#	162315
#	174510
#	186688
#	200828
#	214468
#	227443
#	241895
#	257255
#	271203
#	283640
#	295520
#	310345
#
# Disc length: 4333 seconds
#
# Revision: 1
# Processed by: cddbd v1.4PL0 Copyright (c) Steve Scherf et al.
# Submitted via: CDex 1.50
#
DISCID=6210eb18
DTITLE=Art Tatum - Complete Decca And Brunswick Recordings 1932 - 1941 CD2
DYEAR=1932
DGENRE=Jazz
TTITLE0=The Shout
TTITLE1=Beautiful Love
TTITLE2=Beautiful Love
TTITLE3=Liza
TTITLE4=I Would Do Anything For You
TTITLE5=When A Woman Loves A Man
TTITLE6=After You've Gone
TTITLE7=I Ain't Got A Woman
TTITLE8=Liza
TTITLE9=Boots And Saddle
TTITLE10=Body And Soul
TTITLE11=Body And Soul
TTITLE12=With Plenty Of Money And You
TTITLE13=With Plenty Of Money And You
TTITLE14=What Will I Tell My Heart?
TTITLE15=I've Got My Love To Keep Me Warm
TTITLE16=Gone With The Wind
TTITLE17=Stormy Weather
TTITLE18=Chloe
TTITLE19=Chloe
TTITLE20=The Sheik Of Araby
TTITLE21=Tea For Two
TTITLE22=Deep Purple
TTITLE23=Deep Purple
EXTD=YEAR: 1932
EXTT0=
EXTT1=
EXTT2=
EXTT3=
EXTT4=
EXTT5=
EXTT6=
EXTT7=
EXTT8=
EXTT9=
EXTT10=
EXTT11=
EXTT12=
EXTT13=
EXTT14=
EXTT15=
EXTT16=
EXTT17=
EXTT18=
EXTT19=
EXTT20=
EXTT21=
EXTT22=
EXTT23=
PLAYORDER=
